<svg xmlns="http://www.w3.org/2000/svg" width="61.896" height="75.722" viewBox="0 0 61.896 75.722">
  <g id="i-dispensaciones" transform="translate(-1399 -316)">
    <path id="Trazado_4" data-name="Trazado 4" d="M208.418,521.067V516.99a8.179,8.179,0,0,0-8.18-8.18H183.915a8.179,8.179,0,0,0-8.18,8.18v4.09" transform="translate(1237.872 -167.296)" fill="none" stroke="#29a9e0" stroke-linecap="round" stroke-miterlimit="10" stroke-width="2"/>
    <path id="Trazado_5" data-name="Trazado 5" d="M195.883,505.6a8.18,8.18,0,1,1-8.18-8.18,8.179,8.179,0,0,1,8.18,8.18Z" transform="translate(1242.238 -180.422)" fill="none" stroke="#29a9e0" stroke-linecap="round" stroke-miterlimit="10" stroke-width="2"/>
    <path id="Trazado_110" data-name="Trazado 110" d="M180.6,526.975h-7.351a3.832,3.832,0,0,1-3.834-3.832v-3.121a3.833,3.833,0,0,1,3.834-3.834h52.229a3.834,3.834,0,0,1,3.834,3.834v3.121a3.834,3.834,0,0,1-3.834,3.832h-39.13" transform="translate(1230.586 -158.792)" fill="none" stroke="#363e63" stroke-linecap="round" stroke-linejoin="round" stroke-width="2"/>
    <path id="Trazado_111" data-name="Trazado 111" d="M171.26,531.67" transform="translate(1232.714 -140.948)" fill="none" stroke="#312783" stroke-linecap="round" stroke-linejoin="round" stroke-width="2"/>
    <path id="Trazado_112" data-name="Trazado 112" d="M177.231,521.2h39.095V543.74" transform="translate(1239.596 -153.019)" fill="none" stroke="#363e63" stroke-linecap="round" stroke-linejoin="round" stroke-width="2"/>
    <path id="Trazado_113" data-name="Trazado 113" d="M171.26,543.74V521.2h7.21" transform="translate(1232.714 -153.019)" fill="none" stroke="#363e63" stroke-linecap="round" stroke-linejoin="round" stroke-width="2"/>
    <line id="Línea_33" data-name="Línea 33" y2="11.094" transform="translate(1429.948 375.725)" fill="none" stroke="#29a9e0" stroke-linecap="round" stroke-miterlimit="10" stroke-width="2"/>
    <line id="Línea_34" data-name="Línea 34" x1="11.094" transform="translate(1424.401 381.271)" fill="none" stroke="#29a9e0" stroke-linecap="round" stroke-miterlimit="10" stroke-width="2"/>
  </g>
</svg>
