<svg xmlns="http://www.w3.org/2000/svg" width="51.904" height="75.95" viewBox="0 0 51.904 75.95">
  <g id="i-farmacia" transform="translate(-1040.395 -433.05)">
    <line id="Línea_31" data-name="Línea 31" x2="49.644" transform="translate(1041.353 470.809)" fill="none" stroke="#29a9e0" stroke-miterlimit="10" stroke-width="2"/>
    <line id="Línea_32" data-name="Línea 32" x2="49.644" transform="translate(1041.353 497.959)" fill="none" stroke="#29a9e0" stroke-miterlimit="10" stroke-width="2"/>
    <path id="Trazado_111" data-name="Trazado 111" d="M237.6,564.14H215.252a8.49,8.49,0,0,1-8.49-8.49V527.907a12.553,12.553,0,0,1,2.7-7.711l7.228-9.153a1.728,1.728,0,0,0,.372-1.07V503.74" transform="translate(834.633 -56.14)" fill="none" stroke="#363e63" stroke-linecap="round" stroke-miterlimit="10" stroke-width="2"/>
    <path id="Trazado_111-2" data-name="Trazado 111" d="M231.981,510.337l1.7,2.153a12.542,12.542,0,0,1,2.7,7.708h0l0,.08v27.768a8.49,8.49,0,0,1-8.49,8.49h-3.535" transform="translate(854.916 -48.536)" fill="none" stroke="#363e63" stroke-linecap="round" stroke-miterlimit="10" stroke-width="2"/>
    <path id="Trazado_111-3" data-name="Trazado 111" d="M225.741,507.6l4.647,5.885" transform="translate(856.508 -51.687)" fill="none" stroke="#363e63" stroke-linecap="round" stroke-miterlimit="10" stroke-width="2"/>
    <path id="Trazado_111-4" data-name="Trazado 111" d="M225.159,503.692v6.249a1.668,1.668,0,0,0,.362,1.04l.891,1.13" transform="translate(855.838 -56.195)" fill="none" stroke="#363e63" stroke-linecap="round" stroke-miterlimit="10" stroke-width="2"/>
    <line id="Línea_33" data-name="Línea 33" y2="13.44" transform="translate(1066.348 478.53)" fill="none" stroke="#29a9e0" stroke-linecap="round" stroke-miterlimit="10" stroke-width="2"/>
    <line id="Línea_34" data-name="Línea 34" x1="13.44" transform="translate(1059.628 485.25)" fill="none" stroke="#29a9e0" stroke-linecap="round" stroke-miterlimit="10" stroke-width="2"/>
    <rect id="Rectángulo_85" data-name="Rectángulo 85" width="35.294" height="13.445" rx="3" transform="translate(1048.636 434.05)" fill="none" stroke="#29a9e0" stroke-miterlimit="10" stroke-width="2"/>
  </g>
</svg>
