<svg xmlns="http://www.w3.org/2000/svg" width="16.856" height="21" viewBox="0 0 16.856 21">
  <g id="i-gestion-roles-xs" transform="translate(-1658.385 -558.38)">
    <path id="Trazado_117" data-name="Trazado 117" d="M8.84,4.51c0-.016.01-.03.01-.046a.805.805,0,0,0-.786-.824H8a.664.664,0,0,1-.608-.4V3.205a.665.665,0,0,1,.132-.732l.024-.024a.451.451,0,0,0,.033-.033A.805.805,0,0,0,6.407,1.311l-.024.024A.669.669,0,0,1,5.248.86V.785A.8.8,0,0,0,3.639.824V.892a.664.664,0,0,1-.4.607H3.205a.664.664,0,0,1-.732-.132l-.024-.024a.806.806,0,1,0-1.14,1.138l.026.026a.663.663,0,0,1,.133.73.663.663,0,0,1-.607.434H.785A.8.8,0,0,0,0,4.495.131.131,0,0,0,0,4.51" transform="translate(1674.741 564.806) rotate(90)" fill="none" stroke="#fff" stroke-linecap="round" stroke-linejoin="round" stroke-width="1"/>
    <path id="Trazado_118" data-name="Trazado 118" d="M2.407,1.273c0-.022.007-.043.007-.066A1.207,1.207,0,0,0,0,1.207c0,.023.005.044.006.066" transform="translate(1671.504 568.043) rotate(90)" fill="none" stroke="#fff" stroke-linecap="round" stroke-linejoin="round" stroke-width="1"/>
    <path id="Trazado_4" data-name="Trazado 4" d="M411.368,487.019V485.95a2.146,2.146,0,0,0-2.146-2.146h-4.281a2.145,2.145,0,0,0-2.146,2.146v1.073" transform="translate(1256.09 91.857)" fill="none" stroke="#fff" stroke-linecap="round" stroke-linejoin="round" stroke-width="1"/>
    <path id="Trazado_5" data-name="Trazado 5" d="M410.874,474.562a2.146,2.146,0,1,1-2.146-2.146,2.146,2.146,0,0,1,2.146,2.146Z" transform="translate(1254.441 96.815)" fill="none" stroke="#fff" stroke-linecap="round" stroke-linejoin="round" stroke-width="1"/>
    <path id="Trazado_4-2" data-name="Trazado 4" d="M411.368,487.019V485.95a2.146,2.146,0,0,0-2.146-2.146h-4.281a2.145,2.145,0,0,0-2.146,2.146v1.073" transform="translate(1256.09 81.505)" fill="none" stroke="#fff" stroke-linecap="round" stroke-linejoin="round" stroke-width="1"/>
    <path id="Trazado_5-2" data-name="Trazado 5" d="M410.874,474.562a2.146,2.146,0,1,1-2.146-2.146,2.146,2.146,0,0,1,2.146,2.146Z" transform="translate(1254.441 86.464)" fill="none" stroke="#fff" stroke-linecap="round" stroke-linejoin="round" stroke-width="1"/>
  </g>
</svg>
