<svg xmlns="http://www.w3.org/2000/svg" width="55.342" height="73.848" viewBox="0 0 55.342 73.848">
  <g id="i-gestion_usuarios" data-name="i-gestion usuarios" transform="translate(-1031 -318.152)">
    <path id="Trazado_115" data-name="Trazado 115" d="M332.734,466.547l22.213,53.342,7.9-23.229,23.229-7.9Z" transform="translate(699.266 -128.889)" fill="none" stroke="#363e63" stroke-linecap="round" stroke-linejoin="round" stroke-width="2"/>
    <path id="Trazado_116" data-name="Trazado 116" d="M347.734,481.547l18.86,18.86" transform="translate(715.699 -112.456)" fill="none" stroke="#363e63" stroke-linecap="round" stroke-linejoin="round" stroke-width="2"/>
    <path id="Trazado_117" data-name="Trazado 117" d="M388.752,474.773c0-.059.036-.109.038-.168a2.9,2.9,0,0,0-2.833-2.971h-.245a2.393,2.393,0,0,1-2.192-1.45v-.115a2.4,2.4,0,0,1,.476-2.64l.086-.086a1.61,1.61,0,0,0,.119-.119,2.9,2.9,0,0,0-4.225-3.986l-.086.086a2.413,2.413,0,0,1-4.091-1.71v-.27a2.9,2.9,0,0,0-5.8.138v.245a2.394,2.394,0,0,1-1.45,2.19h-.115a2.394,2.394,0,0,1-2.64-.478l-.086-.086a2.905,2.905,0,1,0-4.112,4.105l.092.092a2.505,2.505,0,0,1-1.71,4.2h-.27a2.9,2.9,0,0,0-2.831,2.971.473.473,0,0,0,.006.055" transform="matrix(0.921, 0.391, -0.391, 0.921, 904.682, -242.039)" fill="none" stroke="#29a9e0" stroke-linecap="round" stroke-linejoin="round" stroke-width="2"/>
    <path id="Trazado_118" data-name="Trazado 118" d="M371.124,468.67c0-.08.025-.155.025-.237a4.352,4.352,0,0,0-8.7,0c0,.082.019.157.023.237" transform="matrix(0.921, 0.391, -0.391, 0.921, 907.915, -234.038)" fill="none" stroke="#29a9e0" stroke-linecap="round" stroke-linejoin="round" stroke-width="2"/>
  </g>
</svg>
