<svg xmlns="http://www.w3.org/2000/svg" width="59.176" height="74.12" viewBox="0 0 59.176 74.12">
  <g id="i-gestion-roles" transform="translate(-1297.864 -317.88)">
    <path id="Trazado_117" data-name="Trazado 117" d="M388.752,474.773c0-.059.036-.109.038-.168a2.9,2.9,0,0,0-2.833-2.971h-.245a2.393,2.393,0,0,1-2.192-1.45v-.115a2.4,2.4,0,0,1,.476-2.64l.086-.086a1.61,1.61,0,0,0,.119-.119,2.9,2.9,0,0,0-4.225-3.986l-.086.086a2.413,2.413,0,0,1-4.091-1.71v-.27a2.9,2.9,0,0,0-5.8.138v.245a2.394,2.394,0,0,1-1.45,2.19h-.115a2.394,2.394,0,0,1-2.64-.478l-.086-.086a2.905,2.905,0,1,0-4.112,4.105l.092.092a2.505,2.505,0,0,1-1.71,4.2h-.27a2.9,2.9,0,0,0-2.831,2.971.473.473,0,0,0,.006.055" transform="translate(1814.55 -16.624) rotate(90)" fill="none" stroke="#29a9e0" stroke-linecap="round" stroke-linejoin="round" stroke-width="2"/>
    <path id="Trazado_118" data-name="Trazado 118" d="M371.124,468.67c0-.08.025-.155.025-.237a4.352,4.352,0,0,0-8.7,0c0,.082.019.157.023.237" transform="translate(1808.448 -10.521) rotate(90)" fill="none" stroke="#29a9e0" stroke-linecap="round" stroke-linejoin="round" stroke-width="2"/>
    <path id="Trazado_4" data-name="Trazado 4" d="M433.708,495.4v-3.856a7.737,7.737,0,0,0-7.737-7.737H410.532a7.736,7.736,0,0,0-7.737,7.737v3.868" transform="translate(896.069 -104.409)" fill="none" stroke="#363e63" stroke-linecap="round" stroke-linejoin="round" stroke-width="2"/>
    <path id="Trazado_5" data-name="Trazado 5" d="M422.057,480.153a7.737,7.737,0,1,1-7.737-7.737,7.739,7.739,0,0,1,7.737,7.737Z" transform="translate(899.994 -116.208)" fill="none" stroke="#363e63" stroke-linecap="round" stroke-linejoin="round" stroke-width="2"/>
    <path id="Trazado_4-2" data-name="Trazado 4" d="M433.708,495.4v-3.856a7.737,7.737,0,0,0-7.737-7.737H410.532a7.736,7.736,0,0,0-7.737,7.737v3.868" transform="translate(896.069 -141.738)" fill="none" stroke="#363e63" stroke-linecap="round" stroke-linejoin="round" stroke-width="2"/>
    <path id="Trazado_5-2" data-name="Trazado 5" d="M422.057,480.153a7.737,7.737,0,1,1-7.737-7.737,7.739,7.739,0,0,1,7.737,7.737Z" transform="translate(899.994 -153.536)" fill="none" stroke="#363e63" stroke-linecap="round" stroke-linejoin="round" stroke-width="2"/>
  </g>
</svg>
