<svg xmlns="http://www.w3.org/2000/svg" width="15.913" height="21.156" viewBox="0 0 15.913 21.156">
  <g id="i-gestion-usuarios-xs" transform="translate(-1564.5 -558.429)">
    <path id="Trazado_115" data-name="Trazado 115" d="M332.734,466.547l6.21,14.913,2.209-6.494,6.494-2.209Z" transform="translate(1232.266 97.625)" fill="none" stroke="#fff" stroke-linecap="round" stroke-linejoin="round" stroke-width="1"/>
    <path id="Trazado_116" data-name="Trazado 116" d="M347.734,481.547l5.273,5.273" transform="translate(1226.054 91.413)" fill="none" stroke="#fff" stroke-linecap="round" stroke-linejoin="round" stroke-width="1"/>
    <path id="Trazado_117" data-name="Trazado 117" d="M8.912,4.547c0-.016.01-.03.011-.047a.812.812,0,0,0-.792-.831H8.062a.669.669,0,0,1-.613-.405V3.231a.67.67,0,0,1,.133-.738l.024-.024a.447.447,0,0,0,.033-.033A.812.812,0,0,0,6.459,1.321l-.024.024A.675.675,0,0,1,5.291.867V.792A.811.811,0,0,0,3.669.83V.9a.669.669,0,0,1-.405.612H3.231a.669.669,0,0,1-.738-.134l-.024-.024A.812.812,0,1,0,1.32,2.5l.026.026a.669.669,0,0,1,.134.736A.669.669,0,0,1,.867,3.7H.792A.811.811,0,0,0,0,4.531a.132.132,0,0,0,0,.015" transform="matrix(0.921, 0.391, -0.391, 0.921, 1571.159, 559.085)" fill="none" stroke="#fff" stroke-linecap="round" stroke-linejoin="round" stroke-width="1"/>
    <path id="Trazado_118" data-name="Trazado 118" d="M2.427,1.283c0-.022.007-.043.007-.066A1.217,1.217,0,0,0,0,1.217c0,.023.005.044.006.066" transform="matrix(0.921, 0.391, -0.391, 0.921, 1572.888, 563.364)" fill="none" stroke="#fff" stroke-linecap="round" stroke-linejoin="round" stroke-width="1"/>
  </g>
</svg>
