<svg xmlns="http://www.w3.org/2000/svg" width="16.63" height="21" viewBox="0 0 16.63 21">
  <g id="i-gestion-pacientes-xs" transform="translate(-1612.234 -559.528)">
    <path id="Trazado_4" data-name="Trazado 4" d="M414.162,488.067v-1.418a2.845,2.845,0,0,0-2.845-2.845H405.64a2.845,2.845,0,0,0-2.845,2.845v1.422" transform="translate(1209.939 91.957)" fill="none" stroke="#fff" stroke-linecap="round" stroke-linejoin="round" stroke-width="1"/>
    <path id="Trazado_5" data-name="Trazado 5" d="M412.273,475.261a2.845,2.845,0,1,1-2.845-2.845,2.846,2.846,0,0,1,2.845,2.845Z" transform="translate(1208.987 94.819)" fill="none" stroke="#fff" stroke-linecap="round" stroke-linejoin="round" stroke-width="1"/>
    <path id="Trazado_6" data-name="Trazado 6" d="M422.956,488.1v-1.422a2.846,2.846,0,0,0-2.131-2.744" transform="translate(1205.407 91.925)" fill="none" stroke="#fff" stroke-linecap="round" stroke-linejoin="round" stroke-width="1"/>
    <path id="Trazado_7" data-name="Trazado 7" d="M417.03,472.544a2.845,2.845,0,0,1,0,5.506" transform="translate(1206.361 94.787)" fill="none" stroke="#fff" stroke-linecap="round" stroke-linejoin="round" stroke-width="1"/>
    <path id="Trazado_117" data-name="Trazado 117" d="M366.133,463.234c0-.017.01-.032.011-.049a.844.844,0,0,0-.823-.863h-.071a.7.7,0,0,1-.637-.421v-.033a.7.7,0,0,1,.138-.767l.025-.025a.459.459,0,0,0,.035-.035.844.844,0,0,0-1.227-1.158l-.025.025a.7.7,0,0,1-1.188-.5v-.078a.843.843,0,0,0-1.685.04v.071a.7.7,0,0,1-.421.636h-.034a.7.7,0,0,1-.767-.139l-.025-.025a.844.844,0,1,0-1.194,1.192l.027.027a.728.728,0,0,1-.5,1.219H357.7a.842.842,0,0,0-.822.863.138.138,0,0,0,0,.016" transform="translate(1259.04 101.518)" fill="none" stroke="#fff" stroke-linecap="round" stroke-linejoin="round" stroke-width="1"/>
    <path id="Trazado_118" data-name="Trazado 118" d="M364.965,465.414c0-.023.007-.045.007-.069a1.264,1.264,0,0,0-2.528,0c0,.024.005.046.007.069" transform="translate(1256.86 99.338)" fill="none" stroke="#fff" stroke-linecap="round" stroke-linejoin="round" stroke-width="1"/>
  </g>
</svg>
